<?xml version="1.0" encoding="UTF-8" standalone="no"?>
<!DOCTYPE svg PUBLIC "-//W3C//DTD SVG 1.1//EN" "http://www.w3.org/Graphics/SVG/1.1/DTD/svg11.dtd">
<svg version="1.1" xmlns="http://www.w3.org/2000/svg" xmlns:xlink="http://www.w3.org/1999/xlink" preserveAspectRatio="xMidYMid meet" viewBox="344.5639097744361 330.27819548872174 111.73684210526318 91.21804511278197" width="53.87" height="43.61"><defs><path d="M453.3 331.28L453.3 359.85L388.64 418.5L388.64 388.42L453.3 331.28Z" id="aFZf6T5ED"></path><linearGradient id="gradientb2ThqnP5Op" gradientUnits="userSpaceOnUse" x1="420.97" y1="331.28" x2="420.97" y2="418.5"><stop style="stop-color: #06b6d4;stop-opacity: 1" offset="0%"></stop><stop style="stop-color: #67e8f9;stop-opacity: 1" offset="100%"></stop></linearGradient><path d="M410.23 331.28L410.23 359.85L345.56 418.5L345.56 388.42L410.23 331.28Z" id="a9fehgwfM"></path><linearGradient id="gradientk1wNV9Ostb" gradientUnits="userSpaceOnUse" x1="377.89" y1="331.28" x2="377.89" y2="418.5"><stop style="stop-color: #06b6d4;stop-opacity: 1" offset="0%"></stop><stop style="stop-color: #67e8f9;stop-opacity: 1" offset="100%"></stop></linearGradient></defs><g><g><use xlink:href="#aFZf6T5ED" opacity="1" fill="url(#gradientb2ThqnP5Op)"></use></g><g><use xlink:href="#a9fehgwfM" opacity="1" fill="url(#gradientk1wNV9Ostb)"></use></g></g></svg>
<svg xmlns="http://www.w3.org/2000/svg" xml:space="preserve" width="32" height="32" viewBox="0 0 28 28"><path fill="#FFE577" d="M5.749 23.984c8.877 1.989 10.987.792 13.339-.575 4.466-2.595 8.908-11.965 4.896-15.588-2.734-2.468-6.28-2.933-15.767-2.009-5.646.551-9.213 16.661-2.468 18.172z"/><path fill="#FFA0C6" d="M4.684 18.541c-.728-2.102.592-10.927 6.041-15.315 3.143-2.53 8.309-3.238 8.83-.387.521 2.851-2.445 8.576-4.772 11.785-2.728 3.762-6.875 7.524-10.099 3.917z"/><path d="M14 26a.51.51 0 0 1-.215-.048c-2.499-1.189-5.662-1.273-9.951-.265a1.495 1.495 0 0 1-1.271-.293A1.497 1.497 0 0 1 2 24.22V8.11c0-.561.324-1.086.826-1.337 2.112-1.067 3.96-1.644 5.648-1.762a.512.512 0 0 1 .535.464.502.502 0 0 1-.464.534c-1.553.108-3.276.65-5.27 1.658A.497.497 0 0 0 3 8.11v16.11a.502.502 0 0 0 .611.492c4.398-1.034 7.71-.96 10.389.237 2.677-1.197 5.989-1.272 10.395-.236A.5.5 0 0 0 25 24.22V8.11a.497.497 0 0 0-.273-.442c-2.201-1.112-4.079-1.66-5.741-1.677a.5.5 0 0 1 .005-1h.005c1.819.019 3.841.603 6.181 1.784.499.249.823.774.823 1.335v16.11a1.5 1.5 0 0 1-1.829 1.468c-4.295-1.01-7.456-.927-9.957.263A.489.489 0 0 1 14 26z"/><path d="M14 25.75a.5.5 0 0 1-.5-.5V14.5a.5.5 0 0 1 1 0v10.75a.5.5 0 0 1-.5.5zM6.5 18a.5.5 0 0 1-.477-.648c2.262-7.25 5.048-12.191 8.517-15.104a1.05 1.05 0 0 1 1.013-.19c.33.116.568.395.639.745.466 2.37.384 4.392-.244 6.009a.5.5 0 0 1-.714.254L14 8.361v2.879a.5.5 0 0 1-.2.4c-1.321.991-3.108 1.568-5.313 1.716a60.141 60.141 0 0 0-1.509 4.292A.502.502 0 0 1 6.5 18zm8.71-15.003c-2.423 2.029-4.498 5.1-6.296 9.321 1.67-.17 3.041-.618 4.086-1.333V7.5a.5.5 0 0 1 .748-.434l1.452.828c.381-1.345.385-2.989.01-4.897z"/></svg>